<svg width="32" height="32" viewBox="0 0 32 32" fill="none" xmlns="http://www.w3.org/2000/svg">
<rect width="32" height="32" fill="#011C40"/>
<path fill-rule="evenodd" clip-rule="evenodd" d="M2.36141 20.85L7.86906 13.4172L9.3758 14.2224L12.961 8.4L15.1952 11.0635L16.0266 10.3821L19.248 14.4702L21.5342 11.7448L27.925 20.85L21.768 13.1076L20.8327 16.3594L21.69 18.93L16.1824 11.3422L16.1228 13.9312L19.248 20.85L13.4026 10.1343L15.0913 15.9258L12.7272 10.2892L11.4282 14.0366L11.6879 11.5899L8.44051 20.4164L8.83011 16.7L7.47925 15.2135L2.36141 20.85Z" fill="#F9FBFD"/>
<path fill-rule="evenodd" clip-rule="evenodd" d="M29.7766 22.0125C21.0564 14.9712 7.48363 24.6515 2 20.9184C8.02893 26.2086 22.1208 17.2658 29.7766 22.0125Z" fill="#F9FBFD"/>
<path fill-rule="evenodd" clip-rule="evenodd" d="M30 22.5663C23.1583 18.2068 12.9827 24.2735 7.76756 22.8687C13.4187 25.6113 23.9393 19.5344 30 22.5663Z" fill="#F9FBFD"/>
</svg>
